<?xml version="1.0" encoding="UTF-8"?> <svg xmlns="http://www.w3.org/2000/svg" id="Ebene_1" data-name="Ebene 1" viewBox="0 0 400 150"><defs><style>.cls-1{fill:#030303;}.cls-2{fill:#060606;}.cls-3{fill:#040404;}.cls-4{fill:#aac310;}</style></defs><title>stellenboersen_logos</title><path class="cls-1" d="M118,56.08c.19,0,.26,0,.27,0,4.62-7,11.44-7.81,18.8-6.42S148,56.29,149.63,63.12a40,40,0,0,1-.25,19.68c-2.25,8.5-8.39,13.06-17.66,13.42-3.88.15-7.52-.5-10.66-2.94-.5-.39-1.73-.74-.74-1.82.73-.79,1.24-1.73,2.67-.64A10.82,10.82,0,0,0,139.67,86a21.37,21.37,0,0,0,1.38-6.4c.38-6.21.75-12.44-.78-18.56-2.13-8.56-8.68-9.77-14.16-8.23-4.57,1.29-6.56,4.85-7.51,9.18a23.46,23.46,0,0,0-.39,5c0,11.58.06,23.15,0,34.72,0,2.76.93,3.83,3.84,4.27a14,14,0,0,0,2.59.09c1,0,1.38.27,1.38,1.3s-.31,1.44-1.4,1.44c-7,0-14,0-21,0-.92,0-1.44-.16-1.44-1.24s.19-1.55,1.34-1.51a11.77,11.77,0,0,0,3.64-.35,3,3,0,0,0,2.42-3c0-.45,0-.91,0-1.37q0-24.41,0-48.8c0-2.74.8-3.55,3.52-3.56,4.53,0,4.88.32,4.88,4.83Z"></path><path class="cls-2" d="M81,68c2.93-4.38,5.75-8.56,8.52-12.77,1.07-1.64.42-2.7-1.58-2.73-.81,0-1.63,0-2.45,0-1,.08-1.35-.34-1.35-1.32s.43-1.33,1.39-1.32q7.34,0,14.69,0c1,0,1.5.27,1.49,1.38s-.48,1.33-1.42,1.26c-3.12-.25-5.34,1.13-7,3.7-3.15,4.82-6.37,9.6-9.6,14.36a1.29,1.29,0,0,0,0,1.73c3.48,5.21,7,10.42,10.38,15.67,1.87,2.87,4.2,4.85,7.87,4.6.94-.06,1,.54,1,1.29s-.17,1.37-1.15,1.36c-2.3,0-4.59,0-6.89,0-4.39,0-8.77,0-13.16,0-1,0-1.68,0-1.67-1.34s.68-1.39,1.66-1.32a15.69,15.69,0,0,0,1.68,0c1.74-.06,2.41-1,1.48-2.5-3-4.73-6-9.39-9.2-14.24-2.62,3.88-5.12,7.58-7.6,11.29a28,28,0,0,0-1.89,3c-.73,1.43-.13,2.39,1.47,2.48a17.65,17.65,0,0,0,2.3,0c1-.06,1.49.17,1.5,1.33S71,95.24,70,95.24c-5.1,0-10.21,0-15.3,0-1,0-1.52-.21-1.51-1.35s.54-1.43,1.52-1.31c3.77.49,6.23-1.33,8.2-4.38,3.23-5,6.62-9.91,10-14.83a1.65,1.65,0,0,0,0-2.14c-3.3-5.2-6.6-10.41-9.76-15.7a5.49,5.49,0,0,0-5.52-3c-.56,0-1.12,0-1.68,0-1,.08-1.37-.28-1.37-1.3S55,49.88,56,49.88q11.16,0,22.33,0c1,0,1.36.36,1.36,1.35s-.41,1.32-1.38,1.3a27.55,27.55,0,0,0-4,.14A1.43,1.43,0,0,0,73.16,55C75.69,59.29,78.28,63.55,81,68Z"></path><path class="cls-3" d="M35.39,71.26c-4.13,0-8.27-.05-12.4,0-1.33,0-1.48-.57-1.46-1.66s.06-1.82,1.51-1.8c5.1.07,10.2,0,15.3.06,1.15,0,1.46-.27,1.41-1.43a29.73,29.73,0,0,0-1-7.85c-1.31-4.08-4.07-6.41-8-6.73-4.73-.38-7.9,1.32-9.92,5.32A16.77,16.77,0,0,0,19,63.79c-.35,6.51-.77,13.06.71,19.49,1.59,7,5.92,10.17,13,9.84,7.45-.35,12.06-4.31,13.08-11.23a1.86,1.86,0,0,1,2.75-1.67.72.72,0,0,1,.52.8c.06,5.3-4,11.62-9.05,13.52a26.55,26.55,0,0,1-19.14.1,16.13,16.13,0,0,1-9.34-9.58A33.3,33.3,0,0,1,9.87,64.81c2.2-9.44,9.33-15.21,19-15.64a25.42,25.42,0,0,1,7.58.7c7.37,1.9,12.09,7.61,12.95,15.63.12,1.17.23,2.34.25,3.51,0,1.9-.32,2.24-2.19,2.25Z"></path><path class="cls-3" d="M341.06,71.26c-4,0-8.06-.06-12.08,0-1.39,0-1.57-.57-1.57-1.73s.23-1.75,1.6-1.73c5.1.07,10.2,0,15.29,0,1.07,0,1.38-.26,1.35-1.34a27,27,0,0,0-1.23-8.43,8.66,8.66,0,0,0-7.88-6.23c-4.21-.39-7.47,1.07-9.58,4.85a16.35,16.35,0,0,0-2,6.53,69.94,69.94,0,0,0,.57,19.65c1,4.85,3.38,8.64,8.6,9.82a16.77,16.77,0,0,0,10.35-.86c4.42-1.85,6.53-5.47,7.26-10,.25-1.54,1.07-2,2.61-1.64.88.24.53.87.47,1.36-.92,8-5.47,12.92-13.39,14.26a30.48,30.48,0,0,1-10.65,0C323.89,94.56,319.33,90.48,317,84a34,34,0,0,1-1.35-18.67c2-9.59,9.23-15.67,19.05-16.14a25.55,25.55,0,0,1,7.74.73c7.62,2,12.38,8,13,16.59.4,5.8.22,4.69-4.41,4.76C347.69,71.3,344.37,71.26,341.06,71.26Z"></path><path class="cls-3" d="M184.24,71.26c-4.13,0-8.26,0-12.39,0-1.27,0-1.57-.47-1.53-1.63s0-1.85,1.51-1.83c5.15.07,10.3,0,15.45,0,1.1,0,1.38-.31,1.33-1.37-.13-3.06-.28-6.11-1.47-9a8.57,8.57,0,0,0-7.53-5.63c-3.92-.4-7.16.75-9.33,4.21a17.78,17.78,0,0,0-2.51,8.57c-.32,6.06-.53,12.14.68,18.13,1.42,7,5.55,10.41,12.45,10.34,7.58-.08,12.34-3.85,13.64-10.77.43-2.29.49-2.32,2.34-2.2.8,0,1.09.33,1,1.14-1.16,7.08-4.24,13.54-14.59,14.66a32.52,32.52,0,0,1-9.45-.12,17,17,0,0,1-13.56-11.07,33.42,33.42,0,0,1-1.6-19.67c2.08-9.54,9.18-15.43,18.92-15.94a25.85,25.85,0,0,1,7.74.7C192.37,51.68,197,57,198.14,64.58a33.15,33.15,0,0,1,.36,4.87c0,1.29-.58,1.83-1.87,1.82C192.5,71.24,188.37,71.26,184.24,71.26Z"></path><path class="cls-3" d="M294,71.26c-4.08,0-8.16-.05-12.24,0-1.37,0-1.58-.56-1.58-1.73s.28-1.74,1.62-1.73c5.1.07,10.2,0,15.3.06,1.19,0,1.44-.36,1.39-1.46a28.28,28.28,0,0,0-1.22-8.28,8.7,8.7,0,0,0-7.86-6.27c-4.27-.41-7.58,1.06-9.69,4.92a19.21,19.21,0,0,0-2.21,8.82c-.13,5.24-.34,10.5.49,15.71.11.71.24,1.41.41,2.1,1.66,6.7,5.83,9.88,12.69,9.7,7.35-.19,12-3.91,13.29-10.62.46-2.44.51-2.45,2.37-2.34.81,0,1.07.35.94,1.14-1,6.35-3.67,12.84-13.06,14.43a31.77,31.77,0,0,1-11,.11,17,17,0,0,1-13.56-11,33.5,33.5,0,0,1-1.49-20.27c2.15-9.19,9.38-14.93,18.91-15.37a25.84,25.84,0,0,1,7.59.68C302.2,51.64,306.85,57,308,64.54a29,29,0,0,1,.36,4.57c0,1.86-.28,2.14-2.12,2.15Z"></path><path class="cls-3" d="M217.68,76.22q0,6.27,0,12.54c0,2.2.79,3.12,2.95,3.55a14.19,14.19,0,0,0,3.5.22c.93,0,1.26.32,1.26,1.25s-.16,1.45-1.24,1.44q-10.71,0-21.42,0c-1,0-1.2-.48-1.19-1.34s.15-1.37,1.17-1.36a20.66,20.66,0,0,0,3-.25c2.47-.39,3.3-1.4,3.3-3.92,0-7.13,0-14.27,0-21.41a34,34,0,0,1,.64-7.6,11.83,11.83,0,0,1,9.7-9.6,23.54,23.54,0,0,1,11.07,0c6.25,1.6,7.61,6.59,7,11.36a2.23,2.23,0,0,1-2.36,2.13,31.61,31.61,0,0,1-3.51,0c-1.72-.12-2.35-.76-2.54-2.47-.14-1.21-.17-2.44-.34-3.65-.26-1.86-.66-3.68-2.79-4.33a5.62,5.62,0,0,0-5.88,2,11.81,11.81,0,0,0-2,6,17.59,17.59,0,0,0-.22,2.28c0,4.38,0,8.77,0,13.16Z"></path><path class="cls-1" d="M243.68,65.36q0-10.41,0-20.8c0-2.47.94-3.38,3.44-3.39,4.86,0,5.17.28,5.17,5.19,0,3.64,0,3.64,3.58,3.64,1.89,0,3.78.07,5.66,0,1.29-.06,1.82.27,1.8,1.68s-.35,1.82-1.74,1.77c-2.7-.1-5.4,0-8.1,0-.87,0-1.24.11-1.23,1.13.05,10.09,0,20.19.05,30.28a13,13,0,0,0,.72,4.5,5,5,0,0,0,6.56,3.08,11.2,11.2,0,0,0,4.05-2.66c.47-.45.85-1.11,1.55-.23.55.7,1.4,1.14.43,2.25A13.68,13.68,0,0,1,256,96.18a18.7,18.7,0,0,1-5.33-.28c-3.77-.73-5.93-3-6.65-7a32.08,32.08,0,0,1-.38-5.79Z"></path><path class="cls-2" d="M380.41,49.17c-.06.18-.06.24-.09.26-4.78,3.09-6.54,7.74-6.73,13.16-.32,8.86-.27,17.72-.23,26.59,0,1.73.87,2.66,2.62,3.07a12.39,12.39,0,0,0,3.64.28c1-.08,1.48.28,1.47,1.37s-.42,1.33-1.38,1.33c-7,0-14.06,0-21.09,0-.92,0-1.41-.2-1.41-1.27s.3-1.45,1.4-1.44a15,15,0,0,0,3.47-.4c2-.46,2.6-1.34,2.61-3.36q0-10.86,0-21.7a41.61,41.61,0,0,1,.52-7.31c1.15-6.43,5.05-10,11.6-10.56C378,49.09,379.13,49.17,380.41,49.17Z"></path><path class="cls-4" d="M382.58,58.54a14.81,14.81,0,0,1,1-5.82c.57-1.32,1.45-2.5,3-2.54s2.35,1.11,3,2.32a14.75,14.75,0,0,1,1.32,8.62c-.23,1.85-1.27,2.24-5,2.15-2.15-.05-2.94-.59-3.16-2.29C382.6,60.17,382.62,59.35,382.58,58.54Z"></path></svg> 